HIERARCHY
ROOT Hips
{
	OFFSET 0.000000 0.000000 0.000000 
	CHANNELS 6 Xposition Yposition Zposition Zrotation Yrotation Xrotation
	JOINT LeftUpLeg
	{
		OFFSET 1.363060 -1.794630 0.839290 
		CHANNELS 3 Zrotation Yrotation Xrotation
		JOINT LeftLeg
		{
			OFFSET 2.448110 -6.726130 0.000000 
			CHANNELS 3 Zrotation Yrotation Xrotation
			JOINT LeftFoot
			{
				OFFSET 2.562200 -7.039590 0.000000 
				CHANNELS 3 Zrotation Yrotation Xrotation
				JOINT LeftToeBase
				{
					OFFSET 0.157640 -0.433110 2.322550 
					CHANNELS 3 Zrotation Yrotation Xrotation
					End Site
					{
						OFFSET 0.000000 0.000000 0.000000 
					}
				}
			}
		}
	}
	JOINT RightUpLeg
	{
		OFFSET -1.305520 -1.794630 0.839290 
		CHANNELS 3 Zrotation Yrotation Xrotation
		JOINT RightLeg
		{
			OFFSET -2.542530 -6.985550 0.000000 
			CHANNELS 3 Zrotation Yrotation Xrotation
			JOINT RightFoot
			{
				OFFSET -2.568260 -7.056230 0.000000 
				CHANNELS 3 Zrotation Yrotation Xrotation
				JOINT RightToeBase
				{
					OFFSET -0.164730 -0.452590 2.363150 
					CHANNELS 3 Zrotation Yrotation Xrotation
					End Site
					{
						OFFSET 0.000000 0.000000 0.000000 
					}
				}
			}
		}
	}
	JOINT Spine
	{
		OFFSET 0.028270 2.035590 -0.193380 
		CHANNELS 3 Zrotation Yrotation Xrotation
		JOINT Spine1
		{
			OFFSET 0.056720 2.048850 -0.042750 
			CHANNELS 3 Zrotation Yrotation Xrotation
			JOINT Neck1
			{
				OFFSET -0.054170 1.746240 0.172020 
				CHANNELS 3 Zrotation Yrotation Xrotation
				JOINT Head
				{
					OFFSET 0.104070 1.761360 -0.123970 
					CHANNELS 3 Zrotation Yrotation Xrotation
					End Site
					{
						OFFSET 0.000000 0.000000 0.000000 
					}
				}
			}
			JOINT LeftArm
			{
				OFFSET 3.362410 1.200890 -0.311210 
				CHANNELS 3 Zrotation Yrotation Xrotation
				JOINT LeftForeArm
				{
					OFFSET 4.983000 -0.000000 -0.000000 
					CHANNELS 3 Zrotation Yrotation Xrotation
					JOINT LeftHand
					{
						OFFSET 3.483560 -0.000000 -0.000000 
						CHANNELS 3 Zrotation Yrotation Xrotation
						JOINT LeftHandIndex1
						{
							OFFSET 0.715260 -0.000000 -0.000000 
							CHANNELS 3 Zrotation Yrotation Xrotation
							End Site
							{
								OFFSET 0.000000 0.000000 0.000000 
							}
						}
					}
				}
			}
			JOINT RightArm
			{
				OFFSET -3.136600 1.374050 -0.404650 
				CHANNELS 3 Zrotation Yrotation Xrotation
				JOINT RightForeArm
				{
					OFFSET -5.241900 -0.000000 -0.000000 
					CHANNELS 3 Zrotation Yrotation Xrotation
					JOINT RightHand
					{
						OFFSET -3.444170 -0.000000 -0.000000 
						CHANNELS 3 Zrotation Yrotation Xrotation
						JOINT RightHandIndex1
						{
							OFFSET -0.622530 -0.000000 -0.000000 
							CHANNELS 3 Zrotation Yrotation Xrotation
							End Site
							{
								OFFSET 0.000000 0.000000 0.000000 
							}
						}
					}
				}
			}
		}
	}
}
MOTION
Frames: 6
Frame Time: 0.041667
10.306200 17.819837 49.814147 -176.865867 -2.022130 176.824496 -16.289825 -27.248372 1.396496 -1.902659 9.313059 26.618424 -5.452606 16.261910 -8.435374 3.556100 -11.545000 -34.140900 28.037663 21.526218 4.969656 2.243390 -7.812527 24.785384 7.926529 -27.092229 -18.092654 -0.047800 1.410800 -3.879800 0.609151 0.541045 -0.623436 -6.223300 -0.298497 -15.071413 17.148157 -4.736143 11.989355 3.900900 -1.638000 5.272700 -85.493065 14.596909 41.417523 19.319948 -18.071455 -4.083607 1.707077 0.563113 21.111670 -7.125000 0.000000 0.000000 86.058762 -12.155227 48.360132 -20.993117 24.553303 -6.131702 0.246482 1.490982 36.175741 7.125000 0.000000 0.000000 
10.296250 17.821495 49.775771 -178.738931 -1.864389 176.700006 -18.669769 -27.690830 2.934667 -2.233698 8.853576 25.319293 -5.660177 16.850088 -8.659539 2.861200 -10.466900 -30.502400 25.689471 21.423902 4.224325 1.969794 -8.236840 26.101942 7.603747 -26.169398 -18.738720 -0.035800 1.220500 -3.355800 0.977069 0.063574 0.743507 -4.441441 -0.184674 -13.770626 16.442400 -4.080952 11.471120 3.682600 -1.364200 5.128000 -86.750614 13.150405 39.622781 19.961302 -18.875179 -4.397054 1.942233 0.161739 15.804779 -7.125000 0.000000 0.000000 84.704610 -11.134663 49.253983 -20.907141 24.432254 -6.083604 0.283020 1.485106 35.748854 7.125000 0.000000 0.000000 
10.291394 17.834287 49.760018 -179.534776 -1.623992 177.136484 -19.465993 -28.022739 3.187528 -2.378286 8.677335 24.729058 -5.887925 17.435881 -8.860640 2.815000 -10.389500 -30.247300 24.523625 21.521520 3.577381 1.927925 -8.314284 26.261972 7.430702 -25.531615 -18.571989 -0.019100 0.892400 -2.452900 -0.096649 0.296761 0.417472 -4.749386 -0.092158 -13.606272 16.604581 -4.250073 11.211249 3.704900 -1.463400 5.009400 -86.257646 13.190951 40.016887 19.960438 -19.010019 -4.567895 2.051743 0.411664 15.452903 -7.125000 0.000000 0.000000 85.456109 -11.352559 48.455626 -20.814692 24.300285 -6.017192 0.302164 1.489157 35.936715 7.125000 0.000000 0.000000 
10.296250 17.865793 49.755636 -179.535677 -0.902667 178.035096 -19.054888 -27.890575 2.389509 -2.445759 8.573217 24.409411 -6.052182 17.769386 -8.976820 2.819300 -10.396700 -30.271100 23.929136 21.963183 2.571864 1.981577 -8.318845 26.006187 7.356690 -25.139185 -18.124826 -0.013900 0.760500 -2.090100 1.544850 0.511732 1.098373 -3.549941 0.174556 -12.182419 16.018615 -3.845028 10.710891 3.574800 -1.323900 4.875700 -87.466488 11.921859 38.980586 19.876482 -19.012447 -4.775278 2.153582 0.732792 15.254508 -7.125000 0.000000 0.000000 83.715682 -10.582818 49.545754 -20.997014 24.505203 -6.110984 0.297649 1.483367 35.199344 7.125000 0.000000 0.000000 
10.307503 17.912934 49.763690 -178.899705 0.010569 179.519375 -17.537592 -27.645025 0.642120 -2.434731 8.601029 24.371111 -6.201370 17.982601 -8.882221 2.539100 -9.908700 -28.681700 23.976368 22.663178 1.322899 2.152172 -8.218485 25.324582 7.336258 -25.033522 -17.925570 -0.014200 0.768400 -2.111900 1.890416 1.008122 0.201472 -3.733178 0.344814 -11.756466 15.965238 -3.863861 10.706728 3.537200 -1.330200 4.883600 -87.369102 11.917945 39.117404 19.980838 -19.297356 -5.063834 2.173547 0.990629 14.511429 -7.125000 0.000000 0.000000 83.667640 -10.663578 49.818546 -21.149163 24.679929 -6.192042 0.281249 1.483357 34.900072 7.125000 0.000000 0.000000 
10.318755 17.955455 49.803487 -176.863052 -0.326806 -178.958677 -14.277367 -27.303902 -1.823527 -2.297550 8.662062 24.392714 -6.146457 17.487475 -7.134184 2.404600 -9.662300 -27.889800 25.770685 23.255547 0.277068 2.394288 -8.080682 24.515981 7.342378 -25.439061 -18.464372 -0.006800 0.532300 -1.462800 2.878518 1.104555 -0.985828 -4.413762 0.190353 -11.639341 15.869123 -3.896827 10.695683 3.479500 -1.349500 4.858600 -87.303535 11.889306 39.100813 19.957259 -19.320647 -5.091221 2.253550 0.930156 14.468139 -7.125000 0.000000 0.000000 83.711319 -10.761099 50.009177 -21.265660 24.804459 -6.249340 0.271803 1.482183 34.503780 7.125000 0.000000 0.000000 
